<?xml version="1.0" encoding="UTF-8"?>
<svg version="1.1" xmlns="http://www.w3.org/2000/svg" width="709" height="706">
<path d="M0 0 C233.97 0 467.94 0 709 0 C709 232.98 709 465.96 709 706 C475.03 706 241.06 706 0 706 C0 473.02 0 240.04 0 0 Z " fill="#8851CE" transform="translate(0,0)"/>
<path d="M0 0 C7.34365536 2.59055327 12.53241703 11.21700378 17.234375 17.078125 C20.26335724 20.77225537 23.46463215 24.29056872 26.69921875 27.8046875 C28.546875 29.8984375 28.546875 29.8984375 30.546875 32.8984375 C29.22302447 41.13656717 26.51297999 49.13088723 24.15234375 57.125 C23.71859402 58.60072591 23.28502926 60.07650619 22.85163879 61.55233765 C21.94492057 64.63751071 21.03609837 67.72205373 20.12573242 70.80615234 C18.97223837 74.71445685 17.82378775 78.62422104 16.67693615 82.53447914 C15.7823208 85.58269896 14.88504856 88.630132 13.98702431 91.67734909 C13.5633346 93.11608524 13.14040143 94.55504445 12.71831322 95.99425125 C4.6733111 123.404512 4.6733111 123.404512 -0.703125 133.9609375 C-4.08483193 140.60601083 -4.08483193 140.60601083 -5.453125 147.8984375 C-3.28052244 151.438975 -1.2518807 153.32062531 2.546875 154.8984375 C4.53946468 155.20373107 4.53946468 155.20373107 6.63446045 155.1769104 C7.43930374 155.18807388 8.24414703 155.19923737 9.07337952 155.21073914 C10.3842881 155.21397942 10.3842881 155.21397942 11.72167969 155.21728516 C12.648853 155.22733078 13.57602631 155.2373764 14.53129578 155.24772644 C17.59377425 155.27859983 20.65616514 155.29560523 23.71875 155.3125 C25.84296423 155.33120829 27.96717101 155.35078145 30.09136963 155.3711853 C35.68084317 155.42254822 41.27034082 155.46215177 46.85992432 155.49932861 C52.56422916 155.53934212 58.26843337 155.59044658 63.97265625 155.640625 C75.16399185 155.73743359 86.35538422 155.82182266 97.546875 155.8984375 C99.92205381 162.92189847 101.21820998 169.65542594 101.93359375 177.0234375 C102.04032913 178.05098145 102.14706451 179.07852539 102.2570343 180.13720703 C102.47911481 182.29477712 102.69651659 184.45283352 102.90942383 186.61132812 C103.23359888 189.89058646 103.5735972 193.16791408 103.91601562 196.4453125 C104.13114303 198.55459238 104.34536606 200.66396473 104.55859375 202.7734375 C104.65855148 203.74039551 104.75850922 204.70735352 104.86149597 205.70361328 C105.45446604 211.7891102 105.66511166 217.78523346 105.546875 223.8984375 C94.55966343 227.69923568 83.54911265 231.27091222 72.33984375 234.36328125 C71.30836212 234.64910065 70.27688049 234.93492004 69.21414185 235.22940063 C64.99072959 236.39626206 60.76612481 237.55790128 56.53540039 238.69799805 C32.6261841 245.01288245 32.6261841 245.01288245 12.546875 258.8984375 C15.20046155 260.31516127 17.64624422 261.28651446 20.57421875 261.96411133 C21.35603516 262.14802933 22.13785156 262.33194733 22.94335938 262.5214386 C23.78189453 262.71416855 24.62042969 262.9068985 25.484375 263.10546875 C27.28522479 263.53161148 29.08600375 263.95805368 30.88671875 264.38476562 C33.70498026 265.04675207 36.52388693 265.70561481 39.34423828 266.35864258 C58.11335024 270.71912662 73.56843971 276.03714368 87.86645508 289.57543945 C91.50478718 293.00503856 95.27759541 296.15569552 99.234375 299.2109375 C104.75162073 303.47196557 110.17229153 307.83351359 115.546875 312.2734375 C116.25287842 312.85649658 116.95888184 313.43955566 117.6862793 314.0402832 C121.64764733 317.31694702 125.59954393 320.60488314 129.546875 323.8984375 C128.22420216 328.0212369 126.848846 329.83288969 123.296875 332.2734375 C122.31460937 332.95664062 121.33234375 333.63984375 120.3203125 334.34375 C119.06304777 335.19612103 117.80516567 336.04758172 116.546875 336.8984375 C114.87204018 338.04114557 113.19759196 339.18442038 111.5234375 340.328125 C108.69586173 342.25779506 105.86710243 344.18563504 103.03515625 346.10888672 C97.0840305 350.15247131 91.16876216 354.24065412 85.296875 358.3984375 C84.60102295 358.89005371 83.9051709 359.38166992 83.18823242 359.88818359 C80.34381901 361.90132296 77.51051712 363.92507002 74.69921875 365.984375 C63.00779548 374.47038428 50.14916614 379.02625575 36.609375 383.6484375 C34.10163812 384.51307447 31.59470529 385.38000439 29.08799744 386.24761963 C27.54170964 386.78190691 25.99468031 387.31405466 24.4467926 387.84368896 C21.50519221 388.8530097 18.59555499 389.87814189 15.72436523 391.07519531 C13.546875 391.8984375 13.546875 391.8984375 10.546875 391.8984375 C10.546875 392.5584375 10.546875 393.2184375 10.546875 393.8984375 C12.4330957 394.07149414 12.4330957 394.07149414 14.35742188 394.24804688 C19.86599591 394.86368893 25.18483138 396.04929189 30.578125 397.3046875 C31.63167175 397.54537964 32.68521851 397.78607178 33.77069092 398.03405762 C37.19715063 398.81761741 40.62202449 399.60787648 44.046875 400.3984375 C48.82232429 401.49478208 53.59853119 402.58779398 58.375 403.6796875 C59.57026306 403.95329102 60.76552612 404.22689453 61.99700928 404.50878906 C69.60162431 406.24394369 77.21591813 407.92478444 84.84375 409.5546875 C85.78645752 409.75703003 86.72916504 409.95937256 87.70043945 410.16784668 C93.03298844 411.31156209 93.03298844 411.31156209 98.36987305 412.43481445 C106.81759991 414.19610062 114.81270894 415.90660985 122.546875 419.8984375 C122.42504329 422.67059866 122.30257696 425.44272939 122.1796875 428.21484375 C122.14126236 429.08609894 122.10283722 429.95735413 122.06324768 430.85501099 C121.84790667 435.68970365 121.62098318 440.5234904 121.37426758 445.35668945 C121.27396831 447.33673699 121.17395265 449.31679891 121.07421875 451.296875 C120.99954124 452.77793983 120.99954124 452.77793983 120.9233551 454.28892517 C120.66814743 459.57979405 120.48945192 464.85909127 120.44671631 470.15596008 C120.42638313 472.31120286 120.3806937 474.46428657 120.32568359 476.61889648 C120.26637001 479.19586567 120.2548721 481.77453812 120.29931641 484.35180664 C120.1803838 487.9446252 119.9231538 490.57369021 118.546875 493.8984375 C115.15013873 497.01700817 111.45811229 499.04794641 107.34005737 501.02493286 C104.56020757 502.37906825 101.89956339 503.9364544 99.21484375 505.46875 C97.05594248 506.6559309 94.89574695 507.84076068 92.734375 509.0234375 C83.89531179 513.88833509 75.11999742 518.84694425 66.421875 523.9609375 C57.24754812 529.35277314 48.00174549 534.60054626 38.70629883 539.78051758 C31.11234312 544.01380985 23.55659849 548.30947728 16.01586914 552.63671875 C10.46914476 555.81449076 4.89417659 558.93575269 -0.703125 562.0234375 C-11.08668116 567.7555207 -21.28544493 573.79346799 -31.453125 579.8984375 C-22.86990429 580.05104366 -14.28655699 580.19574072 -5.703125 580.3359375 C-4.69131165 580.35246935 -4.69131165 580.35246935 -3.65905762 580.36933517 C26.40823628 580.85793316 56.47712118 581.16841912 86.546875 581.4609375 C87.68787155 581.4720393 88.8288681 581.4831411 90.00444031 581.49457932 C104.18522315 581.63227373 118.36603436 581.76683578 132.546875 581.8984375 C132.63953212 589.40875892 132.71061792 596.91902114 132.75412369 604.42978382 C132.775004 607.91734306 132.80332818 611.40451144 132.84863281 614.8918457 C132.90038562 618.90059167 132.91981636 622.90892672 132.9375 626.91796875 C132.95814514 628.17116409 132.97879028 629.42435944 133.00006104 630.7155304 C133.00036316 631.87650742 133.00066528 633.03748444 133.00097656 634.23364258 C133.00985901 635.25734451 133.01874146 636.28104645 133.02789307 637.33576965 C132.546875 639.8984375 132.546875 639.8984375 130.97537231 641.68360901 C127.72536962 643.30938633 124.84918832 643.61653084 121.23681641 644.00048828 C120.5293609 644.07846209 119.8219054 644.15643589 119.09301186 644.23677254 C116.91219593 644.47224126 114.730262 644.68826795 112.546875 644.8984375 C111.30041199 645.02136169 110.05394897 645.14428589 108.76971436 645.27093506 C105.01726353 645.62303968 101.26335523 645.94826081 97.5078125 646.265625 C96.10832394 646.38619554 94.70885965 646.50704798 93.30941772 646.62815857 C89.60904994 646.94766522 85.90837905 647.26351285 82.20762634 647.57852554 C78.35210688 647.90729571 74.49686407 648.23927747 70.64160156 648.57104492 C65.99696697 648.97058009 61.35231027 649.36984652 56.70751953 649.76756287 C47.59819785 650.54779524 38.48995229 651.33914885 29.3828125 652.14453125 C27.2911799 652.32895602 25.19954584 652.51336421 23.10791016 652.69775391 C20.25483226 652.94935939 17.40181742 653.20156935 14.54901123 653.45623779 C11.98078356 653.68530855 9.41230106 653.91130721 6.84375 654.13671875 C5.79469986 654.23163857 5.79469986 654.23163857 4.72445679 654.32847595 C2.33302632 654.53656039 -0.05922679 654.72081376 -2.453125 654.8984375 C-4.13550262 655.02605469 -4.13550262 655.02605469 -5.85186768 655.15625 C-19.50574783 656.08062761 -33.16208985 656.20171345 -46.84375 656.234375 C-47.50257833 656.23604911 -48.16140665 656.23772323 -48.84019947 656.23944807 C-82.32589525 656.30657244 -115.64654795 654.26176985 -149.04301596 652.00308299 C-156.33070278 651.51148522 -163.61997665 651.0463022 -170.90951157 650.58306313 C-177.98251668 650.13336321 -185.05476725 649.67219446 -192.12691212 649.20918989 C-194.35382088 649.06388196 -196.58082708 648.92015 -198.8078537 648.77666092 C-202.93076708 648.51015767 -207.05278526 648.23165007 -211.17480469 647.95166016 C-212.37860275 647.87469406 -213.58240082 647.79772797 -214.82267761 647.71842957 C-232.89086657 646.46069593 -232.89086657 646.46069593 -235.453125 643.8984375 C-235.54708557 641.96537252 -235.57056017 640.02884912 -235.56665039 638.09350586 C-235.56657486 636.85229477 -235.56649933 635.61108368 -235.56642151 634.33226013 C-235.56131411 632.9676001 -235.5560981 631.60294048 -235.55078125 630.23828125 C-235.548917 628.84965567 -235.54749313 627.46102943 -235.54649353 626.07240295 C-235.54266887 622.41122635 -235.53283903 618.7500892 -235.52178955 615.08892822 C-235.51157432 611.35551487 -235.50699567 607.62209516 -235.50195312 603.88867188 C-235.49121671 596.55857573 -235.47414091 589.22851214 -235.453125 581.8984375 C-234.2407869 581.88813004 -233.02844879 581.87782257 -231.77937317 581.86720276 C-216.27476162 581.73503701 -200.77018277 581.599267 -185.265625 581.4609375 C-184.03006992 581.44991627 -182.79451485 581.43889503 -181.52151871 581.42753983 C-149.39340024 581.140003 -117.26639578 580.82348051 -85.140625 580.3359375 C-84.40884159 580.3248357 -83.67705818 580.3137339 -82.92309952 580.30229568 C-74.43302116 580.17303282 -65.94302384 580.03903945 -57.453125 579.8984375 C-58.31898727 579.67959396 -59.18484955 579.46075043 -60.07695007 579.23527527 C-68.24492404 577.16931839 -76.41087622 575.09558801 -84.57466412 573.01314831 C-88.77160355 571.9428734 -92.96925788 570.87559735 -97.16870117 569.81518555 C-101.22295927 568.79131702 -105.27513425 567.75955758 -109.32599831 566.72234535 C-110.87019395 566.32842876 -112.41511358 565.93733885 -113.96076012 565.54915428 C-116.12907571 565.0040694 -118.29457639 564.44890082 -120.4597168 563.89135742 C-121.69215622 563.57825119 -122.92459564 563.26514496 -124.19438171 562.94255066 C-127.34168792 561.93414234 -129.7595368 560.79998612 -132.453125 558.8984375 C-133.453125 556.8984375 -133.453125 556.8984375 -132.46875 553.30859375 C-129.82675078 545.80944969 -126.44546782 538.5896302 -123.203125 531.3359375 C-122.22887726 529.14594726 -121.25580146 526.95544266 -120.28356934 524.76455688 C-119.63621814 523.30960353 -118.98590645 521.85596378 -118.3326416 520.40365601 C-116.71648569 516.80139236 -115.15349648 513.19091292 -113.68945312 509.52392578 C-108.47892842 496.62256587 -102.16157401 490.2767563 -89.890625 483.7734375 C-87.86258831 482.66640742 -85.8366088 481.55560192 -83.8125 480.44140625 C-82.77287109 479.8695459 -81.73324219 479.29768555 -80.66210938 478.70849609 C-74.20808523 475.06804151 -67.92829494 471.13467836 -61.64038086 467.21630859 C-60.72651611 466.65121582 -59.81265137 466.08612305 -58.87109375 465.50390625 C-58.06438232 465.00012451 -57.2576709 464.49634277 -56.42651367 463.97729492 C-54.453125 462.8984375 -54.453125 462.8984375 -52.453125 462.8984375 C-52.453125 462.2384375 -52.453125 461.5784375 -52.453125 460.8984375 C-53.18345947 460.62080566 -53.91379395 460.34317383 -54.66625977 460.05712891 C-57.26420304 458.97698534 -59.60899386 457.76450878 -62.04296875 456.359375 C-62.902854 455.8655835 -63.76273926 455.37179199 -64.64868164 454.86303711 C-65.55352295 454.33846924 -66.45836426 453.81390137 -67.390625 453.2734375 C-74.9043459 448.89987249 -74.9043459 448.89987249 -82.5234375 444.71484375 C-91.08322464 440.10941018 -97.62733482 434.70480864 -104.453125 427.8984375 C-105.26652344 427.08761719 -106.07992187 426.27679688 -106.91796875 425.44140625 C-108.41476834 423.93948939 -109.90838549 422.43439262 -111.3984375 420.92578125 C-113.23969384 419.10902832 -115.11821302 417.3974712 -117.078125 415.7109375 C-121.18433126 412.1771115 -125.16766995 408.51798981 -129.140625 404.8359375 C-129.78273926 404.24594971 -130.42485352 403.65596191 -131.08642578 403.0480957 C-141.09762859 393.73562124 -141.09762859 393.73562124 -141.96484375 389.25390625 C-140.39812042 382.04219503 -131.19246064 377.04575492 -125.58520508 372.81933594 C-119.90049079 368.52794195 -114.49601867 363.93859396 -109.09130859 359.30273438 C-101.78722766 353.04147155 -94.44818352 346.83474402 -86.91015625 340.85546875 C-84.2607697 338.74522605 -81.63609068 336.60697658 -79.015625 334.4609375 C-78.11070312 333.72101563 -77.20578125 332.98109375 -76.2734375 332.21875 C-74.3021195 330.59691774 -72.33898579 328.96794935 -70.3828125 327.328125 C-69.39539063 326.50570313 -68.40796875 325.68328125 -67.390625 324.8359375 C-66.04291016 323.70478516 -66.04291016 323.70478516 -64.66796875 322.55078125 C-62.453125 320.8984375 -62.453125 320.8984375 -60.453125 320.8984375 C-60.453125 319.5784375 -60.453125 318.2584375 -60.453125 316.8984375 C-61.17661133 316.62765381 -61.90009766 316.35687012 -62.64550781 316.07788086 C-65.4036076 314.91923911 -67.82350429 313.58447011 -70.375 312.02734375 C-71.30924805 311.45870605 -72.24349609 310.89006836 -73.20605469 310.30419922 C-74.19508789 309.69592285 -75.18412109 309.08764648 -76.203125 308.4609375 C-77.23083008 307.83203613 -78.25853516 307.20313477 -79.31738281 306.55517578 C-86.69751342 302.02160131 -93.99330447 297.37246679 -101.2421875 292.6328125 C-106.76370941 289.02918186 -112.35470704 285.53491937 -117.94824219 282.04443359 C-120.12683927 280.67775649 -122.29307199 279.29421085 -124.453125 277.8984375 C-125.13729492 277.46241211 -125.82146484 277.02638672 -126.52636719 276.57714844 C-131.29375128 273.39646622 -131.29375128 273.39646622 -132.14111328 270.74853516 C-132.29555908 269.83273682 -132.29555908 269.83273682 -132.453125 268.8984375 C-120.65877737 259.86009853 -108.55062583 251.3289428 -96.32519531 242.88574219 C-91.89831854 239.82260236 -87.48712325 236.73723454 -83.078125 233.6484375 C-82.26891602 233.08165283 -81.45970703 232.51486816 -80.62597656 231.9309082 C-75.06293986 228.03194606 -69.505381 224.12523598 -63.953125 220.2109375 C-63.25268066 219.71754883 -62.55223633 219.22416016 -61.83056641 218.71582031 C-61.18007324 218.2565918 -60.52958008 217.79736328 -59.859375 217.32421875 C-59.26125 216.90221191 -58.663125 216.48020508 -58.046875 216.04541016 C-56.71102984 215.08404365 -55.40605537 214.07997808 -54.109375 213.06640625 C-52.453125 211.8984375 -52.453125 211.8984375 -50.453125 211.8984375 C-50.453125 211.2384375 -50.453125 210.5784375 -50.453125 209.8984375 C-51.00605225 209.63595215 -51.55897949 209.3734668 -52.12866211 209.10302734 C-54.74102121 207.7492431 -57.17100828 206.21884762 -59.64453125 204.625 C-60.66272949 203.97072021 -61.68092773 203.31644043 -62.72998047 202.64233398 C-63.81424316 201.94309814 -64.89850586 201.2438623 -66.015625 200.5234375 C-68.27929188 199.06798834 -70.54393068 197.61405473 -72.80859375 196.16015625 C-73.37378723 195.79706863 -73.93898071 195.43398102 -74.52130127 195.05989075 C-79.60811454 191.79390767 -84.71478227 188.56015801 -89.828125 185.3359375 C-90.6001123 184.84649658 -91.37209961 184.35705566 -92.16748047 183.8527832 C-95.3526854 181.83567232 -98.54219349 179.84560203 -101.78515625 177.921875 C-114.0250571 170.58798092 -119.47741964 160.76693572 -125.265625 148.2109375 C-125.92501497 146.80857749 -126.58581473 145.40687947 -127.24804688 144.00585938 C-128.46169309 141.43539006 -129.66620974 138.86103423 -130.86254883 136.2824707 C-131.91710595 134.03884579 -133.01512606 131.81510756 -134.15673828 129.61450195 C-135.453125 126.8984375 -135.453125 126.8984375 -135.48828125 124.390625 C-134.02826069 120.87555662 -131.60881402 118.59009128 -128.890625 116.0234375 C-128.34124268 115.49024902 -127.79186035 114.95706055 -127.22583008 114.40771484 C-123.83316737 111.13805048 -120.35660785 107.98506798 -116.76953125 104.9296875 C-113.46903173 102.03548893 -110.279513 99.02643963 -107.078125 96.0234375 C-102.90322451 92.10956407 -98.72186935 88.21032627 -94.453125 84.3984375 C-90.22912486 80.62499738 -86.08675408 76.77013365 -81.953125 72.8984375 C-77.05413028 68.30987413 -72.1153413 63.77668406 -67.109375 59.3046875 C-63.68900617 56.20623574 -60.32141714 53.0532933 -56.953125 49.8984375 C-52.81949592 46.02674135 -48.67712514 42.17187762 -44.453125 38.3984375 C-40.27385428 34.66347463 -36.1704076 30.85302593 -32.078125 27.0234375 C-23.3274319 18.83673671 -14.58062326 10.66652112 -5.453125 2.8984375 C-4.77443359 2.04765625 -4.77443359 2.04765625 -4.08203125 1.1796875 C-2.453125 -0.1015625 -2.453125 -0.1015625 0 0 Z " fill="#000000" transform="translate(408.453125,26.1015625)"/>
<path d="M0 0 C6.80780701 7.52441828 11.93220467 16.55551545 17.16967773 25.19018555 C21.01588294 31.50988584 25.10781609 37.51981479 29.5859375 43.40625 C31 46 31 46 30.98046875 48.62109375 C29.76376922 51.57316552 28.49301075 52.6554661 25.9375 54.5625 C25.02484375 55.25472656 24.1121875 55.94695312 23.171875 56.66015625 C22.12515625 57.43230469 21.0784375 58.20445312 20 59 C18.83761084 59.87245914 17.67619549 60.74621682 16.515625 61.62109375 C13.85604154 63.62324039 11.19108371 65.61798599 8.5234375 67.609375 C3.5973875 71.29358194 -1.29658148 75.01933918 -6.1875 78.75 C-7.06567383 79.41974854 -7.94384766 80.08949707 -8.84863281 80.77954102 C-11.56606047 82.85262762 -14.28305175 84.92628514 -17 87 C-37.49050789 102.63485238 -37.49050789 102.63485238 -46.97265625 109.72265625 C-56.71889388 117.0543421 -66.39962581 124.47833931 -76 132 C-79.13879381 130.6124182 -81.22254795 129.00476592 -83.609375 126.55078125 C-84.28226562 125.86693359 -84.95515625 125.18308594 -85.6484375 124.47851562 C-86.68871094 123.40633789 -86.68871094 123.40633789 -87.75 122.3125 C-92.39445249 117.54884578 -97.08398342 112.94891922 -102.12988281 108.60961914 C-104.80057706 106.31093935 -107.39709496 103.93765085 -110 101.5625 C-111.423125 100.26505859 -111.423125 100.26505859 -112.875 98.94140625 C-113.57625 98.30074219 -114.2775 97.66007812 -115 97 C-111.78151349 88.01569405 -103.68433376 83.09899997 -96.32421875 77.53125 C-89.04164178 72.01446285 -82.09723727 66.09661305 -75.1875 60.125 C-69.99283924 55.63589226 -64.67774966 51.34878027 -59.25073242 47.14501953 C-55.06007081 43.88061627 -51.0106571 40.48246789 -47 37 C-42.42991884 33.0317822 -37.78498273 29.20629106 -33 25.5 C-28.13404075 21.7304508 -23.40535496 17.83936937 -18.75 13.8125 C-2.76734546 0 -2.76734546 0 0 0 Z " fill="#FDFDFD" transform="translate(392,321)"/>
<path d="M0 0 C8.7956095 3.72354178 15.15624151 13.24982285 20.94921875 20.50390625 C23.45836893 23.55790046 26.13485426 26.28178481 29 29 C25.56201263 36.58331185 18.35748704 41.38719877 12.0234375 46.48046875 C8.74067398 49.21610501 5.61624274 52.07840712 2.5 55 C-2.36184953 59.55816384 -7.38618699 63.81499446 -12.5859375 67.98828125 C-15.29160169 70.24300141 -17.70145831 72.67300671 -20.14453125 75.203125 C-22.38282954 77.37074019 -24.75989256 79.29683225 -27.1875 81.25 C-31.72533579 84.90376151 -36.03627642 88.73227189 -40.30297852 92.69775391 C-44.73894726 96.80268021 -49.31003773 100.73372122 -53.91577148 104.64624023 C-57.46028714 107.66250331 -60.93920614 110.734305 -64.375 113.875 C-68.3957891 117.52965764 -72.57566163 120.8485858 -77 124 C-79.49354131 121.73594794 -80.97217229 119.4803645 -82.5234375 116.5 C-82.98516357 115.61739502 -83.44688965 114.73479004 -83.92260742 113.82543945 C-84.40189697 112.89304443 -84.88118652 111.96064941 -85.375 111 C-85.86524658 110.05406982 -86.35549316 109.10813965 -86.8605957 108.13354492 C-96 90.39593541 -96 90.39593541 -96 87 C-94.70703125 85.6953125 -94.70703125 85.6953125 -92.8125 84.125 C-89.06292145 80.93653796 -85.42020933 77.65897627 -81.8125 74.3125 C-81.25868652 73.79969482 -80.70487305 73.28688965 -80.13427734 72.75854492 C-78.99253124 71.70101527 -77.85109521 70.64315076 -76.70996094 69.58496094 C-73.95583622 67.03216572 -71.19684429 64.48465079 -68.4375 61.9375 C-67.8997998 61.4410498 -67.36209961 60.94459961 -66.80810547 60.43310547 C-61.7112808 55.72940737 -56.59920877 51.04245063 -51.48388672 46.35888672 C-48.98835593 44.07357504 -46.49425473 41.7867042 -44 39.5 C-43.00000675 38.58332596 -42.00000676 37.6666593 -41 36.75 C-40.505 36.29625 -40.01 35.8425 -39.5 35.375 C-38 34 -36.5 32.625 -35 31.25 C-34.50516113 30.79633057 -34.01032227 30.34266113 -33.50048828 29.87524414 C-32.49913079 28.95746888 -31.49750254 28.03998894 -30.49560547 27.12280273 C-28.01403984 24.85038497 -25.53840282 22.57225328 -23.0703125 20.28515625 C-15.54686287 13.32209628 -7.81909723 6.6277259 0 0 Z " fill="#FDFDFD" transform="translate(374,63)"/>
<path d="M0 0 C9.06884338 3.35561669 14.86624689 18.87452265 19.44921875 26.90625 C14.7357157 32.43169877 8.6176076 35.56580013 2.38671875 39.15625 C-0.06585044 40.58634765 -2.51512263 42.0220619 -4.96484375 43.45703125 C-5.90749336 44.00769005 -5.90749336 44.00769005 -6.8691864 44.56947327 C-13.45386245 48.42053803 -19.97443273 52.37443457 -26.48828125 56.34375 C-27.65474681 57.05361119 -28.82125088 57.7634091 -29.98779297 58.47314453 C-32.33275825 59.90022073 -34.67728581 61.32801238 -37.02148438 62.75634766 C-45.81306631 68.11270937 -54.61143183 73.45791341 -63.41615295 78.79264832 C-66.27330341 80.52403975 -69.12908553 82.25762517 -71.98193359 83.99609375 C-95.81564502 98.51102636 -95.81564502 98.51102636 -107.55078125 103.90625 C-106.99638085 99.68281843 -106.0219621 96.33658457 -104.14453125 92.51953125 C-103.65227051 91.50753662 -103.16000977 90.49554199 -102.65283203 89.45288086 C-102.12415527 88.38561768 -101.59547852 87.31835449 -101.05078125 86.21875 C-99.95367528 83.97693026 -98.85732867 81.73473876 -97.76171875 79.4921875 C-97.21741211 78.38198242 -96.67310547 77.27177734 -96.11230469 76.12792969 C-94.69613724 73.20614332 -93.31885335 70.27130417 -91.96484375 67.3203125 C-91.57490234 66.47428467 -91.18496094 65.62825684 -90.78320312 64.7565918 C-90.07178463 63.20655894 -89.36679298 61.65355121 -88.66992188 60.09692383 C-84.15284327 50.33265466 -79.05301774 44.98154969 -69.55078125 39.90625 C-67.9496383 38.99209704 -66.35064455 38.07416867 -64.75390625 37.15234375 C-63.10317093 36.21560577 -61.45211788 35.27942753 -59.80078125 34.34375 C-48.64143489 27.99155284 -37.58351082 21.47535616 -26.55078125 14.90625 C-25.61089355 14.34776367 -24.67100586 13.78927734 -23.70263672 13.21386719 C-20.94195897 11.57253688 -18.18345461 9.92762216 -15.42578125 8.28125 C-14.59038818 7.78431641 -13.75499512 7.28738281 -12.89428711 6.77539062 C-12.11835205 6.31068359 -11.34241699 5.84597656 -10.54296875 5.3671875 C-9.8660498 4.96290527 -9.18913086 4.55862305 -8.49169922 4.14208984 C-6.47589702 2.90582135 -6.47589702 2.90582135 -4.46069336 1.24658203 C-2.55078125 -0.09375 -2.55078125 -0.09375 0 0 Z " fill="#FCFCFC" transform="translate(390.55078125,474.09375)"/>
<path d="M0 0 C4.46810287 7.96487903 4.9268489 17.00735885 4 26 C2.09010046 31.31335373 -0.39656861 33.33719904 -5.1875 36.1875 C-6.45336277 36.96102734 -7.71762469 37.73717912 -8.98046875 38.515625 C-9.63966309 38.91845703 -10.29885742 39.32128906 -10.97802734 39.73632812 C-14.38867189 41.86787801 -17.69335282 44.14908638 -21 46.4375 C-21.66749268 46.89825928 -22.33498535 47.35901855 -23.02270508 47.83374023 C-30.74186189 53.18079146 -38.35952386 58.66977595 -45.98828125 64.14453125 C-46.87902344 64.77746094 -47.76976562 65.41039062 -48.6875 66.0625 C-49.83798828 66.88427734 -49.83798828 66.88427734 -51.01171875 67.72265625 C-57.43206728 71.84732024 -66.38423127 69.69315746 -73.484375 68.33203125 C-81.32882507 66.44744995 -81.32882507 66.44744995 -85 64 C-80.13341001 58.81824407 -74.96615351 54.55963809 -69.1875 50.4375 C-62.69870779 45.73628167 -56.29919422 40.95245551 -50 36 C-43.02376085 30.52580353 -35.93634182 25.22493851 -28.78027344 19.98852539 C-24.0573395 16.5288731 -19.37785852 13.02330609 -14.75 9.4375 C-2.54499588 0 -2.54499588 0 0 0 Z " fill="#FBFBFB" transform="translate(423,241)"/>
</svg>
