<?xml version="1.0" encoding="UTF-8"?>
<svg xmlns="http://www.w3.org/2000/svg" xmlns:xlink="http://www.w3.org/1999/xlink" width="512px" height="512px" viewBox="0 0 512 512" version="1.1">
<g id="surface1">
<path style=" stroke:none;fill-rule:nonzero;fill:rgb(53.333336%,31.764707%,80.784315%);fill-opacity:1;" d="M 0 0 C 168.960938 0 337.921875 0 512 0 C 512 168.960938 512 337.921875 512 512 C 343.039062 512 174.078125 512 0 512 C 0 343.039062 0 174.078125 0 0 Z M 0 0 "/>
<path style=" stroke:none;fill-rule:nonzero;fill:rgb(0%,0%,0%);fill-opacity:1;" d="M 301.21875 13.238281 C 308.863281 15.136719 314.261719 21.445312 319.15625 25.730469 C 322.304688 28.433594 325.636719 31.007812 329.003906 33.578125 C 330.925781 35.109375 330.925781 35.109375 333.007812 37.304688 C 331.628906 43.328125 328.808594 49.175781 326.355469 55.023438 C 325.902344 56.101562 325.449219 57.183594 325 58.261719 C 324.054688 60.519531 323.109375 62.773438 322.164062 65.03125 C 320.964844 67.886719 319.769531 70.746094 318.574219 73.609375 C 317.644531 75.835938 316.710938 78.066406 315.773438 80.296875 C 315.335938 81.347656 314.894531 82.398438 314.453125 83.453125 C 306.082031 103.5 306.082031 103.5 300.488281 111.222656 C 296.96875 116.082031 296.96875 116.082031 295.542969 121.417969 C 297.804688 124.007812 299.917969 125.382812 303.871094 126.539062 C 305.945312 126.761719 305.945312 126.761719 308.125 126.742188 C 308.960938 126.75 309.796875 126.757812 310.660156 126.765625 C 312.027344 126.769531 312.027344 126.769531 313.417969 126.769531 C 314.382812 126.777344 315.347656 126.785156 316.339844 126.792969 C 319.527344 126.816406 322.714844 126.828125 325.902344 126.839844 C 328.113281 126.855469 330.324219 126.867188 332.535156 126.882812 C 338.351562 126.921875 344.167969 126.949219 349.984375 126.976562 C 355.921875 127.007812 361.855469 127.042969 367.792969 127.078125 C 379.4375 127.152344 391.085938 127.210938 402.730469 127.269531 C 405.203125 132.40625 406.550781 137.332031 407.296875 142.71875 C 407.40625 143.472656 407.519531 144.222656 407.632812 144.996094 C 407.863281 146.574219 408.089844 148.152344 408.3125 149.734375 C 408.648438 152.132812 409.003906 154.527344 409.359375 156.925781 C 409.582031 158.46875 409.804688 160.011719 410.027344 161.554688 C 410.132812 162.261719 410.238281 162.96875 410.34375 163.699219 C 410.960938 168.148438 411.179688 172.535156 411.058594 177.003906 C 399.625 179.785156 388.164062 182.398438 376.5 184.660156 C 375.425781 184.867188 374.351562 185.078125 373.246094 185.292969 C 368.851562 186.148438 364.457031 186.996094 360.054688 187.832031 C 335.171875 192.449219 335.171875 192.449219 314.277344 202.605469 C 317.039062 203.640625 319.582031 204.351562 322.628906 204.847656 C 323.445312 204.984375 324.257812 205.117188 325.09375 205.253906 C 325.96875 205.398438 326.839844 205.539062 327.738281 205.683594 C 329.613281 205.996094 331.488281 206.304688 333.363281 206.617188 C 336.292969 207.101562 339.226562 207.585938 342.164062 208.0625 C 361.695312 211.25 377.777344 215.140625 392.65625 225.042969 C 396.445312 227.550781 400.371094 229.855469 404.488281 232.089844 C 410.230469 235.207031 415.871094 238.398438 421.464844 241.644531 C 422.199219 242.070312 422.933594 242.5 423.691406 242.9375 C 427.8125 245.335938 431.925781 247.738281 436.03125 250.148438 C 434.65625 253.164062 433.226562 254.488281 429.527344 256.273438 C 428.507812 256.773438 427.484375 257.273438 426.429688 257.789062 C 425.121094 258.410156 423.8125 259.035156 422.503906 259.65625 C 420.761719 260.492188 419.019531 261.328125 417.277344 262.164062 C 414.332031 263.578125 411.390625 264.988281 408.441406 266.394531 C 402.25 269.351562 396.09375 272.339844 389.984375 275.382812 C 389.257812 275.742188 388.535156 276.101562 387.789062 276.472656 C 384.828125 277.945312 381.882812 279.425781 378.957031 280.929688 C 366.789062 287.136719 353.40625 290.46875 339.316406 293.851562 C 336.707031 294.484375 334.097656 295.117188 331.488281 295.753906 C 329.878906 296.144531 328.269531 296.53125 326.660156 296.921875 C 323.597656 297.65625 320.570312 298.40625 317.582031 299.285156 C 315.316406 299.886719 315.316406 299.886719 312.195312 299.886719 C 312.195312 300.367188 312.195312 300.851562 312.195312 301.347656 C 314.15625 301.476562 314.15625 301.476562 316.160156 301.605469 C 321.894531 302.054688 327.429688 302.921875 333.039062 303.839844 C 334.136719 304.015625 335.234375 304.191406 336.363281 304.375 C 339.929688 304.945312 343.492188 305.523438 347.058594 306.101562 C 352.027344 306.90625 356.996094 307.703125 361.96875 308.503906 C 363.210938 308.703125 364.457031 308.902344 365.738281 309.109375 C 373.652344 310.378906 381.574219 311.609375 389.511719 312.800781 C 390.492188 312.949219 391.472656 313.097656 392.484375 313.25 C 398.035156 314.085938 398.035156 314.085938 403.589844 314.90625 C 412.378906 316.195312 420.699219 317.445312 428.746094 320.367188 C 428.621094 322.394531 428.492188 324.421875 428.367188 326.449219 C 428.324219 327.085938 428.285156 327.722656 428.246094 328.378906 C 428.019531 331.914062 427.785156 335.453125 427.527344 338.988281 C 427.421875 340.433594 427.320312 341.882812 427.214844 343.332031 C 427.136719 344.414062 427.136719 344.414062 427.058594 345.519531 C 426.792969 349.390625 426.605469 353.25 426.5625 357.125 C 426.542969 358.703125 426.492188 360.277344 426.4375 361.851562 C 426.375 363.738281 426.363281 365.625 426.410156 367.507812 C 426.285156 370.136719 426.019531 372.058594 424.585938 374.492188 C 421.050781 376.773438 417.207031 378.257812 412.921875 379.703125 C 410.03125 380.695312 407.261719 381.832031 404.46875 382.953125 C 402.222656 383.824219 399.972656 384.6875 397.722656 385.554688 C 388.523438 389.113281 379.394531 392.738281 370.339844 396.480469 C 360.792969 400.421875 351.171875 404.261719 341.5 408.050781 C 333.597656 411.148438 325.734375 414.289062 317.886719 417.453125 C 312.113281 419.777344 306.3125 422.0625 300.488281 424.320312 C 289.683594 428.511719 279.070312 432.929688 268.488281 437.394531 C 277.421875 437.507812 286.351562 437.613281 295.285156 437.714844 C 296.335938 437.726562 296.335938 437.726562 297.410156 437.738281 C 328.703125 438.097656 359.992188 438.324219 391.285156 438.539062 C 392.472656 438.546875 393.660156 438.554688 394.882812 438.5625 C 409.640625 438.664062 424.398438 438.761719 439.15625 438.855469 C 439.25 444.351562 439.324219 449.84375 439.371094 455.335938 C 439.390625 457.886719 439.421875 460.4375 439.46875 462.988281 C 439.523438 465.921875 439.542969 468.851562 439.5625 471.785156 C 439.582031 472.703125 439.605469 473.617188 439.625 474.5625 C 439.625 475.414062 439.625 476.261719 439.628906 477.136719 C 439.636719 477.886719 439.644531 478.632812 439.65625 479.40625 C 439.15625 481.28125 439.15625 481.28125 437.519531 482.585938 C 434.136719 483.773438 431.144531 484 427.382812 484.28125 C 426.648438 484.335938 425.914062 484.394531 425.152344 484.453125 C 422.882812 484.625 420.613281 484.785156 418.339844 484.9375 C 417.042969 485.027344 415.746094 485.117188 414.410156 485.210938 C 410.503906 485.46875 406.597656 485.703125 402.691406 485.9375 C 401.234375 486.023438 399.777344 486.113281 398.320312 486.203125 C 394.472656 486.4375 390.621094 486.667969 386.769531 486.898438 C 382.757812 487.136719 378.746094 487.378906 374.734375 487.625 C 369.898438 487.914062 365.066406 488.207031 360.230469 488.5 C 350.753906 489.070312 341.273438 489.648438 331.796875 490.238281 C 329.621094 490.371094 327.445312 490.507812 325.265625 490.640625 C 322.296875 490.824219 319.328125 491.011719 316.359375 491.195312 C 313.6875 491.363281 311.015625 491.53125 308.339844 491.695312 C 307.25 491.765625 307.25 491.765625 306.136719 491.835938 C 303.648438 491.988281 301.15625 492.121094 298.667969 492.25 C 296.914062 492.34375 296.914062 492.34375 295.128906 492.441406 C 280.921875 493.117188 266.710938 493.203125 252.472656 493.230469 C 251.785156 493.230469 251.101562 493.230469 250.394531 493.230469 C 215.546875 493.28125 180.871094 491.785156 146.117188 490.132812 C 138.535156 489.773438 130.949219 489.433594 123.363281 489.09375 C 116 488.765625 108.640625 488.429688 101.28125 488.089844 C 98.964844 487.984375 96.648438 487.878906 94.328125 487.773438 C 90.039062 487.578125 85.75 487.375 81.460938 487.171875 C 80.207031 487.113281 78.953125 487.058594 77.664062 487 C 58.863281 486.078125 58.863281 486.078125 56.195312 484.207031 C 56.097656 482.792969 56.074219 481.375 56.078125 479.960938 C 56.078125 479.050781 56.078125 478.144531 56.078125 477.207031 C 56.082031 476.210938 56.089844 475.210938 56.09375 474.214844 C 56.09375 473.199219 56.097656 472.183594 56.097656 471.167969 C 56.101562 468.488281 56.113281 465.8125 56.125 463.132812 C 56.132812 460.402344 56.140625 457.671875 56.144531 454.941406 C 56.15625 449.578125 56.171875 444.21875 56.195312 438.855469 C 57.457031 438.847656 58.71875 438.84375 60.019531 438.835938 C 76.152344 438.738281 92.289062 438.636719 108.421875 438.539062 C 109.707031 438.527344 110.996094 438.519531 112.320312 438.511719 C 145.753906 438.300781 179.1875 438.070312 212.617188 437.714844 C 213.378906 437.707031 214.140625 437.699219 214.925781 437.691406 C 223.761719 437.59375 232.597656 437.496094 241.429688 437.394531 C 240.53125 437.234375 239.628906 437.074219 238.699219 436.910156 C 230.199219 435.398438 221.703125 433.882812 213.207031 432.359375 C 208.839844 431.574219 204.472656 430.792969 200.101562 430.019531 C 195.882812 429.269531 191.664062 428.515625 187.449219 427.757812 C 185.84375 427.46875 184.234375 427.183594 182.625 426.898438 C 180.371094 426.5 178.117188 426.09375 175.863281 425.6875 C 174.582031 425.457031 173.296875 425.226562 171.976562 424.992188 C 168.703125 424.253906 166.183594 423.425781 163.382812 422.035156 C 162.339844 420.570312 162.339844 420.570312 163.367188 417.945312 C 166.117188 412.460938 169.632812 407.179688 173.007812 401.875 C 174.023438 400.273438 175.035156 398.671875 176.046875 397.066406 C 176.71875 396.003906 177.398438 394.941406 178.078125 393.878906 C 179.757812 391.242188 181.386719 388.601562 182.910156 385.921875 C 188.332031 376.484375 194.90625 371.84375 207.675781 367.085938 C 209.785156 366.277344 211.894531 365.464844 214 364.648438 C 215.082031 364.230469 216.164062 363.8125 217.277344 363.382812 C 223.996094 360.71875 230.53125 357.839844 237.074219 354.976562 C 238.023438 354.5625 238.976562 354.148438 239.957031 353.722656 C 240.792969 353.355469 241.632812 352.984375 242.5 352.605469 C 244.554688 351.816406 244.554688 351.816406 246.632812 351.816406 C 246.632812 351.335938 246.632812 350.851562 246.632812 350.355469 C 245.875 350.152344 245.113281 349.949219 244.332031 349.738281 C 241.628906 348.949219 239.1875 348.0625 236.65625 347.035156 C 235.757812 346.671875 234.863281 346.3125 233.941406 345.941406 C 233 345.554688 232.058594 345.171875 231.089844 344.777344 C 223.269531 341.578125 223.269531 341.578125 215.339844 338.515625 C 206.433594 335.148438 199.625 331.195312 192.519531 326.21875 C 191.675781 325.625 190.828125 325.03125 189.957031 324.421875 C 188.398438 323.320312 186.84375 322.21875 185.292969 321.117188 C 183.375 319.789062 181.421875 318.535156 179.382812 317.304688 C 175.109375 314.71875 170.964844 312.042969 166.828125 309.347656 C 166.160156 308.917969 165.492188 308.484375 164.804688 308.039062 C 154.386719 301.230469 154.386719 301.230469 153.484375 297.953125 C 155.113281 292.675781 164.695312 289.023438 170.527344 285.929688 C 176.445312 282.792969 182.070312 279.433594 187.695312 276.042969 C 195.292969 271.464844 202.933594 266.925781 210.777344 262.550781 C 213.535156 261.007812 216.265625 259.445312 218.992188 257.875 C 219.933594 257.332031 220.875 256.792969 221.84375 256.234375 C 223.898438 255.046875 225.941406 253.855469 227.976562 252.65625 C 229.003906 252.054688 230.03125 251.453125 231.089844 250.835938 C 232.492188 250.007812 232.492188 250.007812 233.921875 249.164062 C 236.226562 247.953125 236.226562 247.953125 238.308594 247.953125 C 238.308594 246.988281 238.308594 246.023438 238.308594 245.027344 C 237.554688 244.832031 236.804688 244.632812 236.027344 244.429688 C 233.15625 243.582031 230.640625 242.605469 227.984375 241.464844 C 227.011719 241.050781 226.039062 240.632812 225.039062 240.207031 C 224.007812 239.761719 222.980469 239.316406 221.917969 238.855469 C 220.847656 238.398438 219.78125 237.9375 218.679688 237.464844 C 210.996094 234.148438 203.40625 230.746094 195.863281 227.28125 C 190.117188 224.644531 184.296875 222.089844 178.476562 219.535156 C 176.210938 218.535156 173.957031 217.523438 171.707031 216.503906 C 170.996094 216.183594 170.285156 215.863281 169.550781 215.535156 C 164.589844 213.210938 164.589844 213.210938 163.707031 211.273438 C 163.546875 210.601562 163.546875 210.601562 163.382812 209.921875 C 175.65625 203.308594 188.257812 197.070312 200.980469 190.894531 C 205.585938 188.652344 210.175781 186.394531 214.765625 184.136719 C 215.605469 183.722656 216.449219 183.308594 217.316406 182.882812 C 223.105469 180.027344 228.890625 177.171875 234.667969 174.308594 C 235.394531 173.949219 236.125 173.585938 236.875 173.214844 C 237.550781 172.878906 238.230469 172.542969 238.925781 172.195312 C 239.550781 171.886719 240.171875 171.578125 240.8125 171.261719 C 242.203125 170.558594 243.5625 169.824219 244.910156 169.082031 C 246.632812 168.230469 246.632812 168.230469 248.714844 168.230469 C 248.714844 167.746094 248.714844 167.261719 248.714844 166.765625 C 248.140625 166.574219 247.566406 166.382812 246.972656 166.183594 C 244.253906 165.195312 241.722656 164.074219 239.152344 162.910156 C 238.089844 162.429688 237.03125 161.953125 235.941406 161.457031 C 234.8125 160.945312 233.683594 160.433594 232.519531 159.910156 C 230.164062 158.84375 227.808594 157.78125 225.453125 156.71875 C 224.863281 156.453125 224.273438 156.1875 223.667969 155.914062 C 218.375 153.523438 213.0625 151.160156 207.738281 148.800781 C 206.9375 148.441406 206.132812 148.085938 205.304688 147.714844 C 201.992188 146.238281 198.671875 144.785156 195.296875 143.378906 C 182.558594 138.011719 176.886719 130.828125 170.863281 121.644531 C 170.175781 120.621094 169.488281 119.59375 168.796875 118.570312 C 167.535156 116.691406 166.28125 114.808594 165.039062 112.921875 C 163.941406 111.28125 162.796875 109.652344 161.609375 108.042969 C 160.261719 106.058594 160.261719 106.058594 160.222656 104.222656 C 161.742188 101.652344 164.261719 99.980469 167.089844 98.101562 C 167.660156 97.710938 168.234375 97.324219 168.820312 96.921875 C 172.351562 94.53125 175.96875 92.222656 179.703125 89.988281 C 183.136719 87.871094 186.457031 85.671875 189.789062 83.472656 C 194.132812 80.613281 198.484375 77.757812 202.925781 74.972656 C 207.324219 72.210938 211.632812 69.390625 215.933594 66.558594 C 221.03125 63.203125 226.171875 59.886719 231.382812 56.617188 C 234.941406 54.351562 238.445312 52.042969 241.953125 49.738281 C 246.253906 46.90625 250.5625 44.085938 254.960938 41.324219 C 259.308594 38.59375 263.578125 35.808594 267.835938 33.003906 C 276.945312 27.019531 286.046875 21.042969 295.542969 15.359375 C 296.25 14.738281 296.25 14.738281 296.972656 14.101562 C 298.667969 13.164062 298.667969 13.164062 301.21875 13.238281 Z M 301.21875 13.238281 "/>
<path style=" stroke:none;fill-rule:nonzero;fill:rgb(98.823529%,98.823529%,98.823529%);fill-opacity:1;" d="M 284.097656 228.9375 C 291.183594 234.441406 296.515625 241.046875 301.964844 247.363281 C 305.96875 251.984375 310.226562 256.378906 314.886719 260.6875 C 316.359375 262.582031 316.359375 262.582031 316.378906 264.472656 C 314.984375 266.792969 313.265625 267.757812 310.4375 269.304688 C 309.394531 269.875 308.351562 270.449219 307.277344 271.039062 C 303.308594 273.136719 299.261719 275.152344 295.203125 277.160156 C 289.335938 280.074219 283.6875 283.167969 278.03125 286.28125 C 264.863281 293.527344 251.523438 300.617188 238.132812 307.65625 C 227 313.511719 215.957031 319.457031 205.007812 325.484375 C 201.742188 324.472656 199.574219 323.292969 197.089844 321.5 C 196.390625 321 195.6875 320.5 194.96875 319.984375 C 193.886719 319.199219 193.886719 319.199219 192.78125 318.398438 C 187.945312 314.914062 183.066406 311.550781 177.816406 308.378906 C 175.035156 306.695312 172.335938 304.960938 169.625 303.222656 C 168.144531 302.273438 168.144531 302.273438 166.632812 301.304688 C 165.90625 300.835938 165.175781 300.367188 164.421875 299.886719 C 166.757812 293.867188 175.316406 290.144531 182.113281 286.628906 C 189.53125 282.71875 196.5625 278.585938 203.519531 274.285156 C 208.410156 271.261719 213.46875 268.386719 218.535156 265.507812 C 220.316406 264.488281 222.09375 263.46875 223.871094 262.445312 C 224.8125 261.902344 225.757812 261.359375 226.730469 260.800781 C 230.640625 258.550781 234.539062 256.292969 238.4375 254.035156 C 239.191406 253.597656 239.945312 253.164062 240.71875 252.714844 C 244.535156 250.503906 248.347656 248.296875 252.160156 246.085938 C 255.8125 243.964844 259.472656 241.851562 263.136719 239.734375 C 265.460938 238.390625 267.785156 237.039062 270.105469 235.6875 C 271.625 234.808594 273.144531 233.929688 274.667969 233.050781 C 275.375 232.636719 276.082031 232.222656 276.8125 231.796875 C 281.78125 228.9375 281.78125 228.9375 284.097656 228.9375 Z M 284.097656 228.9375 "/>
<path style=" stroke:none;fill-rule:nonzero;fill:rgb(98.823529%,98.823529%,98.823529%);fill-opacity:1;" d="M 265.367188 40.230469 C 274.597656 42.90625 282.191406 50.582031 288.1875 55.949219 C 290.484375 57.90625 292.957031 59.671875 295.542969 61.441406 C 291.96875 66.988281 284.46875 70.5 277.878906 74.226562 C 274.460938 76.226562 271.210938 78.320312 267.96875 80.457031 C 262.90625 83.792969 257.679688 86.90625 252.269531 89.957031 C 249.453125 91.605469 246.945312 93.382812 244.402344 95.234375 C 242.074219 96.820312 239.597656 98.230469 237.074219 99.65625 C 232.351562 102.328125 227.863281 105.128906 223.425781 108.03125 C 218.808594 111.03125 214.050781 113.90625 209.257812 116.769531 C 205.570312 118.976562 201.949219 121.222656 198.375 123.519531 C 194.191406 126.191406 189.839844 128.621094 185.234375 130.925781 C 182.640625 129.269531 181.101562 127.621094 179.488281 125.441406 C 179.007812 124.792969 178.527344 124.148438 178.03125 123.484375 C 177.53125 122.800781 177.035156 122.121094 176.519531 121.417969 C 176.011719 120.726562 175.5 120.035156 174.972656 119.320312 C 165.464844 106.347656 165.464844 106.347656 165.464844 103.863281 C 166.808594 102.910156 166.808594 102.910156 168.78125 101.761719 C 172.683594 99.429688 176.472656 97.03125 180.226562 94.582031 C 180.804688 94.207031 181.378906 93.832031 181.972656 93.445312 C 183.164062 92.671875 184.351562 91.898438 185.539062 91.125 C 188.402344 89.257812 191.273438 87.394531 194.144531 85.53125 C 194.707031 85.167969 195.265625 84.804688 195.84375 84.429688 C 201.144531 80.992188 206.464844 77.5625 211.789062 74.136719 C 214.386719 72.464844 216.980469 70.792969 219.578125 69.121094 C 220.617188 68.449219 221.660156 67.777344 222.699219 67.109375 C 223.214844 66.777344 223.730469 66.445312 224.261719 66.101562 C 225.820312 65.097656 227.382812 64.089844 228.941406 63.085938 C 229.457031 62.753906 229.972656 62.421875 230.503906 62.082031 C 231.546875 61.410156 232.589844 60.738281 233.628906 60.066406 C 236.214844 58.40625 238.789062 56.738281 241.359375 55.066406 C 249.1875 49.972656 257.230469 45.078125 265.367188 40.230469 Z M 265.367188 40.230469 "/>
<path style=" stroke:none;fill-rule:nonzero;fill:rgb(98.431373%,98.431373%,98.431373%);fill-opacity:1;" d="M 282.589844 340.914062 C 292.027344 343.367188 298.058594 354.71875 302.828125 360.59375 C 299.144531 363.375 295.570312 365.28125 290.859375 367.210938 C 290.207031 367.480469 289.554688 367.75 288.882812 368.027344 C 287.480469 368.605469 286.074219 369.179688 284.667969 369.753906 C 281.664062 370.980469 278.671875 372.21875 275.679688 373.453125 C 274.140625 374.089844 272.601562 374.726562 271.058594 375.359375 C 263.828125 378.34375 256.65625 381.390625 249.496094 384.457031 C 248.304688 384.964844 247.113281 385.476562 245.921875 385.984375 C 242.945312 387.257812 239.972656 388.53125 237 389.808594 C 183.3125 412.808594 183.3125 412.808594 170.667969 416.914062 C 171.242188 413.824219 172.257812 411.378906 174.210938 408.585938 C 174.722656 407.84375 175.234375 407.105469 175.765625 406.34375 C 176.3125 405.5625 176.863281 404.78125 177.429688 403.976562 C 178.574219 402.335938 179.714844 400.699219 180.855469 399.058594 C 181.421875 398.246094 181.988281 397.433594 182.570312 396.597656 C 184.042969 394.460938 185.476562 392.3125 186.886719 390.152344 C 187.292969 389.535156 187.699219 388.917969 188.117188 388.277344 C 188.855469 387.144531 189.589844 386.007812 190.316406 384.871094 C 195.015625 377.730469 200.324219 373.816406 210.210938 370.101562 C 211.878906 369.433594 213.542969 368.761719 215.203125 368.089844 C 216.921875 367.402344 218.640625 366.71875 220.359375 366.035156 C 231.96875 361.386719 243.476562 356.621094 254.960938 351.816406 C 255.9375 351.410156 256.914062 351 257.921875 350.578125 C 260.796875 349.378906 263.667969 348.175781 266.535156 346.972656 C 267.40625 346.609375 268.273438 346.246094 269.171875 345.871094 C 269.976562 345.53125 270.785156 345.191406 271.617188 344.839844 C 272.324219 344.542969 273.027344 344.25 273.753906 343.945312 C 275.851562 343.039062 275.851562 343.039062 277.949219 341.824219 C 279.933594 340.847656 279.933594 340.847656 282.589844 340.914062 Z M 282.589844 340.914062 "/>
<path style=" stroke:none;fill-rule:nonzero;fill:rgb(98.431373%,98.431373%,98.431373%);fill-opacity:1;" d="M 316.359375 170.421875 C 321.007812 176.25 321.484375 182.863281 320.519531 189.441406 C 318.53125 193.328125 315.945312 194.804688 310.960938 196.890625 C 309.640625 197.457031 308.328125 198.023438 307.011719 198.59375 C 306.328125 198.890625 305.640625 199.183594 304.933594 199.488281 C 301.382812 201.046875 297.945312 202.714844 294.503906 204.386719 C 293.808594 204.726562 293.113281 205.0625 292.398438 205.410156 C 284.367188 209.320312 276.4375 213.335938 268.5 217.339844 C 267.574219 217.804688 266.644531 218.265625 265.691406 218.742188 C 264.492188 219.34375 264.492188 219.34375 263.273438 219.957031 C 256.589844 222.972656 247.273438 221.398438 239.886719 220.402344 C 231.722656 219.023438 231.722656 219.023438 227.902344 217.234375 C 232.96875 213.445312 238.34375 210.328125 244.359375 207.3125 C 251.109375 203.875 257.769531 200.375 264.324219 196.753906 C 271.585938 192.75 278.960938 188.875 286.40625 185.042969 C 291.324219 182.511719 296.191406 179.949219 301.007812 177.324219 C 313.710938 170.421875 313.710938 170.421875 316.359375 170.421875 Z M 316.359375 170.421875 "/>
</g>
</svg>
