<?xml version="1.0" encoding="UTF-8"?>
<svg xmlns="http://www.w3.org/2000/svg" xmlns:xlink="http://www.w3.org/1999/xlink" width="192px" height="192px" viewBox="0 0 192 192" version="1.1">
<g id="surface1">
<path style=" stroke:none;fill-rule:nonzero;fill:rgb(53.333336%,31.764707%,80.784315%);fill-opacity:1;" d="M 0 0 C 63.359375 0 126.71875 0 192 0 C 192 63.359375 192 126.71875 192 192 C 128.640625 192 65.28125 192 0 192 C 0 128.640625 0 65.28125 0 0 Z M 0 0 "/>
<path style=" stroke:none;fill-rule:nonzero;fill:rgb(0%,0%,0%);fill-opacity:1;" d="M 112.957031 4.964844 C 115.824219 5.675781 117.847656 8.042969 119.683594 9.648438 C 120.863281 10.664062 122.113281 11.628906 123.375 12.589844 C 124.097656 13.164062 124.097656 13.164062 124.878906 13.988281 C 124.363281 16.25 123.304688 18.441406 122.382812 20.632812 C 122.214844 21.039062 122.042969 21.441406 121.875 21.847656 C 121.519531 22.695312 121.167969 23.539062 120.8125 24.386719 C 120.359375 25.457031 119.914062 26.53125 119.464844 27.601562 C 119.117188 28.4375 118.765625 29.273438 118.414062 30.109375 C 118.25 30.503906 118.085938 30.898438 117.921875 31.292969 C 114.78125 38.8125 114.78125 38.8125 112.683594 41.707031 C 111.363281 43.53125 111.363281 43.53125 110.828125 45.53125 C 111.675781 46.503906 112.46875 47.019531 113.953125 47.453125 C 114.730469 47.535156 114.730469 47.535156 115.546875 47.527344 C 115.859375 47.53125 116.175781 47.535156 116.5 47.535156 C 117.007812 47.539062 117.007812 47.539062 117.53125 47.539062 C 117.894531 47.542969 118.253906 47.542969 118.628906 47.546875 C 119.824219 47.554688 121.019531 47.558594 122.214844 47.566406 C 123.042969 47.570312 123.871094 47.574219 124.699219 47.582031 C 126.882812 47.59375 129.0625 47.605469 131.242188 47.617188 C 133.46875 47.628906 135.695312 47.640625 137.921875 47.65625 C 142.289062 47.679688 146.65625 47.703125 151.023438 47.726562 C 151.953125 49.652344 152.457031 51.5 152.734375 53.519531 C 152.777344 53.800781 152.820312 54.082031 152.863281 54.375 C 152.949219 54.964844 153.035156 55.558594 153.117188 56.148438 C 153.242188 57.050781 153.375 57.949219 153.511719 58.847656 C 153.59375 59.425781 153.675781 60.003906 153.761719 60.582031 C 153.800781 60.847656 153.839844 61.113281 153.878906 61.386719 C 154.109375 63.054688 154.191406 64.699219 154.144531 66.378906 C 149.859375 67.417969 145.5625 68.398438 141.1875 69.246094 C 140.785156 69.324219 140.382812 69.402344 139.96875 69.484375 C 138.320312 69.804688 136.671875 70.125 135.019531 70.4375 C 125.691406 72.167969 125.691406 72.167969 117.855469 75.976562 C 118.890625 76.367188 119.84375 76.632812 120.984375 76.816406 C 121.292969 76.867188 121.597656 76.917969 121.910156 76.972656 C 122.238281 77.023438 122.566406 77.078125 122.902344 77.132812 C 123.605469 77.246094 124.308594 77.363281 125.011719 77.480469 C 126.109375 77.664062 127.210938 77.84375 128.3125 78.023438 C 135.636719 79.21875 141.667969 80.679688 147.246094 84.390625 C 148.667969 85.332031 150.140625 86.195312 151.683594 87.035156 C 153.835938 88.203125 155.953125 89.398438 158.046875 90.617188 C 158.324219 90.777344 158.601562 90.9375 158.882812 91.101562 C 160.429688 92 161.972656 92.902344 163.511719 93.804688 C 162.996094 94.9375 162.460938 95.433594 161.074219 96.101562 C 160.691406 96.289062 160.304688 96.476562 159.910156 96.671875 C 159.421875 96.90625 158.929688 97.136719 158.4375 97.371094 C 157.785156 97.683594 157.132812 98 156.480469 98.3125 C 155.375 98.839844 154.269531 99.371094 153.167969 99.898438 C 150.84375 101.007812 148.535156 102.128906 146.242188 103.269531 C 145.972656 103.402344 145.699219 103.539062 145.421875 103.675781 C 144.3125 104.230469 143.207031 104.785156 142.109375 105.347656 C 137.546875 107.675781 132.527344 108.925781 127.242188 110.195312 C 126.265625 110.429688 125.285156 110.667969 124.308594 110.90625 C 123.707031 111.054688 123.101562 111.199219 122.496094 111.34375 C 121.347656 111.621094 120.214844 111.902344 119.09375 112.230469 C 118.242188 112.457031 118.242188 112.457031 117.074219 112.457031 C 117.074219 112.636719 117.074219 112.820312 117.074219 113.003906 C 117.808594 113.054688 117.808594 113.054688 118.558594 113.101562 C 120.710938 113.269531 122.785156 113.59375 124.890625 113.941406 C 125.300781 114.007812 125.710938 114.070312 126.136719 114.140625 C 127.472656 114.355469 128.808594 114.570312 130.144531 114.789062 C 132.011719 115.089844 133.875 115.390625 135.738281 115.6875 C 136.203125 115.761719 136.671875 115.839844 137.152344 115.914062 C 140.117188 116.390625 143.089844 116.851562 146.066406 117.300781 C 146.433594 117.355469 146.804688 117.410156 147.183594 117.46875 C 149.261719 117.78125 149.261719 117.78125 151.34375 118.089844 C 154.640625 118.574219 157.761719 119.042969 160.78125 120.136719 C 160.734375 120.898438 160.683594 121.65625 160.636719 122.417969 C 160.621094 122.65625 160.605469 122.894531 160.589844 123.140625 C 160.507812 124.46875 160.417969 125.792969 160.324219 127.121094 C 160.285156 127.664062 160.246094 128.207031 160.207031 128.75 C 160.175781 129.15625 160.175781 129.15625 160.148438 129.570312 C 160.046875 131.019531 159.976562 132.46875 159.960938 133.921875 C 159.953125 134.511719 159.933594 135.105469 159.914062 135.695312 C 159.890625 136.402344 159.886719 137.109375 159.902344 137.816406 C 159.855469 138.800781 159.757812 139.523438 159.21875 140.433594 C 157.894531 141.289062 156.453125 141.847656 154.847656 142.390625 C 153.761719 142.761719 152.722656 143.1875 151.675781 143.609375 C 150.832031 143.933594 149.988281 144.257812 149.144531 144.582031 C 145.695312 145.917969 142.273438 147.277344 138.878906 148.679688 C 135.296875 150.160156 131.691406 151.597656 128.0625 153.019531 C 125.097656 154.179688 122.148438 155.359375 119.207031 156.546875 C 117.042969 157.417969 114.867188 158.273438 112.683594 159.121094 C 108.628906 160.691406 104.652344 162.347656 100.683594 164.023438 C 104.03125 164.066406 107.382812 164.105469 110.730469 164.144531 C 111.125 164.148438 111.125 164.148438 111.53125 164.152344 C 123.261719 164.285156 134.996094 164.371094 146.730469 164.453125 C 147.175781 164.453125 147.621094 164.457031 148.082031 164.460938 C 153.613281 164.5 159.148438 164.535156 164.683594 164.570312 C 164.71875 166.632812 164.746094 168.691406 164.765625 170.75 C 164.773438 171.707031 164.78125 172.664062 164.800781 173.621094 C 164.820312 174.71875 164.828125 175.820312 164.835938 176.917969 C 164.84375 177.261719 164.851562 177.605469 164.859375 177.960938 C 164.859375 178.28125 164.859375 178.597656 164.859375 178.925781 C 164.863281 179.207031 164.867188 179.488281 164.871094 179.777344 C 164.683594 180.480469 164.683594 180.480469 164.070312 180.96875 C 162.800781 181.414062 161.679688 181.5 160.269531 181.605469 C 159.992188 181.625 159.71875 181.648438 159.433594 181.671875 C 158.582031 181.734375 157.730469 181.792969 156.878906 181.851562 C 156.390625 181.886719 155.90625 181.917969 155.402344 181.953125 C 153.941406 182.050781 152.476562 182.140625 151.007812 182.226562 C 150.464844 182.257812 149.917969 182.292969 149.371094 182.324219 C 147.925781 182.414062 146.484375 182.5 145.039062 182.585938 C 143.535156 182.675781 142.027344 182.769531 140.523438 182.859375 C 138.710938 182.96875 136.898438 183.078125 135.085938 183.1875 C 131.53125 183.402344 127.976562 183.617188 124.421875 183.839844 C 123.609375 183.890625 122.792969 183.941406 121.976562 183.992188 C 120.863281 184.058594 119.75 184.128906 118.636719 184.199219 C 117.632812 184.261719 116.628906 184.324219 115.628906 184.386719 C 115.21875 184.410156 115.21875 184.410156 114.800781 184.4375 C 113.867188 184.496094 112.933594 184.546875 112 184.59375 C 111.34375 184.628906 111.34375 184.628906 110.671875 184.664062 C 105.34375 184.917969 100.015625 184.953125 94.675781 184.960938 C 94.417969 184.960938 94.164062 184.960938 93.898438 184.960938 C 80.832031 184.980469 67.828125 184.417969 54.792969 183.800781 C 51.949219 183.664062 49.105469 183.539062 46.261719 183.410156 C 43.5 183.289062 40.742188 183.160156 37.980469 183.035156 C 37.113281 182.992188 36.242188 182.953125 35.375 182.914062 C 33.765625 182.84375 32.15625 182.765625 30.546875 182.6875 C 30.078125 182.667969 29.609375 182.648438 29.125 182.625 C 22.074219 182.28125 22.074219 182.28125 21.074219 181.578125 C 21.035156 181.046875 21.027344 180.515625 21.027344 179.984375 C 21.027344 179.644531 21.027344 179.304688 21.027344 178.953125 C 21.03125 178.578125 21.03125 178.203125 21.035156 177.832031 C 21.035156 177.449219 21.035156 177.070312 21.035156 176.6875 C 21.039062 175.683594 21.042969 174.679688 21.046875 173.675781 C 21.050781 172.652344 21.050781 171.628906 21.054688 170.601562 C 21.058594 168.59375 21.066406 166.582031 21.074219 164.570312 C 21.546875 164.570312 22.019531 164.566406 22.507812 164.5625 C 28.558594 164.527344 34.609375 164.488281 40.660156 164.453125 C 41.140625 164.449219 41.621094 164.445312 42.121094 164.441406 C 54.65625 164.363281 67.195312 164.277344 79.730469 164.144531 C 80.015625 164.140625 80.304688 164.136719 80.597656 164.132812 C 83.910156 164.097656 87.222656 164.0625 90.535156 164.023438 C 90.199219 163.960938 89.859375 163.902344 89.511719 163.839844 C 86.324219 163.273438 83.136719 162.707031 79.953125 162.132812 C 78.316406 161.839844 76.675781 161.546875 75.039062 161.257812 C 73.457031 160.976562 71.875 160.691406 70.292969 160.410156 C 69.691406 160.300781 69.089844 160.195312 68.484375 160.085938 C 67.636719 159.9375 66.792969 159.785156 65.949219 159.632812 C 65.46875 159.546875 64.988281 159.460938 64.492188 159.371094 C 63.261719 159.09375 62.320312 158.785156 61.269531 158.261719 C 60.878906 157.714844 60.878906 157.714844 61.261719 156.730469 C 62.292969 154.671875 63.613281 152.691406 64.878906 150.703125 C 65.257812 150.101562 65.636719 149.5 66.015625 148.902344 C 66.269531 148.5 66.523438 148.101562 66.777344 147.703125 C 67.410156 146.714844 68.019531 145.726562 68.589844 144.71875 C 70.625 141.179688 73.089844 139.441406 77.878906 137.65625 C 78.667969 137.351562 79.460938 137.046875 80.25 136.742188 C 80.65625 136.585938 81.0625 136.429688 81.480469 136.269531 C 84 135.269531 86.449219 134.191406 88.902344 133.117188 C 89.257812 132.960938 89.617188 132.804688 89.984375 132.644531 C 90.296875 132.507812 90.613281 132.371094 90.9375 132.226562 C 91.707031 131.929688 91.707031 131.929688 92.488281 131.929688 C 92.488281 131.75 92.488281 131.570312 92.488281 131.382812 C 92.203125 131.308594 91.917969 131.230469 91.625 131.152344 C 90.609375 130.855469 89.695312 130.523438 88.746094 130.136719 C 88.410156 130.003906 88.074219 129.867188 87.730469 129.726562 C 87.375 129.582031 87.023438 129.441406 86.660156 129.292969 C 83.726562 128.09375 83.726562 128.09375 80.753906 126.945312 C 77.414062 125.679688 74.859375 124.199219 72.195312 122.332031 C 71.878906 122.109375 71.558594 121.886719 71.234375 121.65625 C 70.648438 121.246094 70.066406 120.832031 69.484375 120.417969 C 68.765625 119.921875 68.03125 119.449219 67.269531 118.988281 C 65.664062 118.019531 64.113281 117.015625 62.5625 116.003906 C 62.308594 115.84375 62.058594 115.683594 61.800781 115.515625 C 57.894531 112.960938 57.894531 112.960938 57.554688 111.730469 C 58.167969 109.753906 61.761719 108.382812 63.949219 107.222656 C 66.167969 106.046875 68.277344 104.789062 70.386719 103.515625 C 73.234375 101.800781 76.097656 100.097656 79.042969 98.457031 C 80.074219 97.878906 81.097656 97.292969 82.121094 96.703125 C 82.476562 96.5 82.828125 96.296875 83.191406 96.085938 C 83.960938 95.644531 84.726562 95.195312 85.492188 94.746094 C 85.875 94.519531 86.261719 94.296875 86.660156 94.0625 C 87.183594 93.753906 87.183594 93.753906 87.722656 93.4375 C 88.585938 92.984375 88.585938 92.984375 89.367188 92.984375 C 89.367188 92.621094 89.367188 92.257812 89.367188 91.886719 C 89.082031 91.8125 88.800781 91.738281 88.511719 91.660156 C 87.433594 91.34375 86.488281 90.976562 85.492188 90.550781 C 85.128906 90.394531 84.765625 90.238281 84.390625 90.078125 C 84.003906 89.910156 83.617188 89.742188 83.21875 89.570312 C 82.820312 89.398438 82.417969 89.226562 82.003906 89.046875 C 79.125 87.804688 76.277344 86.53125 73.449219 85.230469 C 71.292969 84.242188 69.113281 83.28125 66.929688 82.324219 C 66.078125 81.949219 65.234375 81.570312 64.390625 81.1875 C 64.125 81.070312 63.855469 80.949219 63.582031 80.824219 C 61.722656 79.953125 61.722656 79.953125 61.390625 79.226562 C 61.328125 78.976562 61.328125 78.976562 61.269531 78.71875 C 65.871094 76.242188 70.597656 73.902344 75.367188 71.585938 C 77.09375 70.746094 78.816406 69.898438 80.535156 69.050781 C 80.851562 68.894531 81.167969 68.742188 81.492188 68.582031 C 83.664062 67.511719 85.832031 66.4375 88 65.367188 C 88.273438 65.230469 88.546875 65.09375 88.828125 64.957031 C 89.082031 64.828125 89.335938 64.703125 89.597656 64.574219 C 89.832031 64.457031 90.0625 64.34375 90.304688 64.222656 C 90.828125 63.960938 91.335938 63.683594 91.839844 63.40625 C 92.488281 63.085938 92.488281 63.085938 93.269531 63.085938 C 93.269531 62.90625 93.269531 62.722656 93.269531 62.539062 C 93.050781 62.464844 92.835938 62.394531 92.613281 62.320312 C 91.59375 61.949219 90.648438 61.527344 89.679688 61.089844 C 89.285156 60.910156 88.886719 60.730469 88.476562 60.546875 C 88.054688 60.355469 87.632812 60.164062 87.195312 59.964844 C 86.3125 59.566406 85.429688 59.167969 84.542969 58.769531 C 84.324219 58.667969 84.101562 58.570312 83.875 58.46875 C 81.890625 57.570312 79.898438 56.683594 77.902344 55.800781 C 77.601562 55.664062 77.300781 55.53125 76.988281 55.394531 C 75.746094 54.839844 74.5 54.292969 73.234375 53.765625 C 68.460938 51.753906 66.332031 49.0625 64.074219 45.617188 C 63.816406 45.234375 63.558594 44.847656 63.300781 44.464844 C 62.824219 43.757812 62.355469 43.050781 61.890625 42.34375 C 61.476562 41.730469 61.050781 41.121094 60.601562 40.515625 C 60.097656 39.769531 60.097656 39.769531 60.082031 39.082031 C 60.652344 38.121094 61.597656 37.492188 62.660156 36.789062 C 62.871094 36.640625 63.085938 36.496094 63.308594 36.34375 C 64.632812 35.449219 65.988281 34.582031 67.390625 33.746094 C 68.675781 32.953125 69.921875 32.125 71.171875 31.304688 C 72.800781 30.230469 74.433594 29.160156 76.097656 28.113281 C 77.746094 27.078125 79.363281 26.023438 80.976562 24.960938 C 82.886719 23.703125 84.816406 22.457031 86.769531 21.230469 C 88.101562 20.382812 89.417969 19.515625 90.730469 18.652344 C 92.34375 17.589844 93.960938 16.53125 95.609375 15.496094 C 97.242188 14.472656 98.84375 13.425781 100.4375 12.378906 C 103.855469 10.132812 107.265625 7.890625 110.828125 5.761719 C 111.09375 5.527344 111.09375 5.527344 111.363281 5.289062 C 112 4.9375 112 4.9375 112.957031 4.964844 Z M 112.957031 4.964844 "/>
<path style=" stroke:none;fill-rule:nonzero;fill:rgb(98.823529%,98.823529%,98.823529%);fill-opacity:1;" d="M 106.535156 85.851562 C 109.191406 87.914062 111.191406 90.390625 113.238281 92.761719 C 114.738281 94.492188 116.335938 96.140625 118.082031 97.757812 C 118.632812 98.46875 118.632812 98.46875 118.640625 99.175781 C 118.121094 100.046875 117.472656 100.410156 116.414062 100.988281 C 116.023438 101.203125 115.632812 101.417969 115.230469 101.640625 C 113.742188 102.425781 112.222656 103.183594 110.699219 103.933594 C 108.5 105.027344 106.382812 106.1875 104.261719 107.355469 C 99.324219 110.074219 94.320312 112.730469 89.300781 115.371094 C 85.125 117.566406 80.984375 119.796875 76.878906 122.058594 C 75.652344 121.675781 74.839844 121.234375 73.910156 120.5625 C 73.644531 120.375 73.382812 120.1875 73.113281 119.992188 C 72.707031 119.699219 72.707031 119.699219 72.292969 119.398438 C 70.480469 118.09375 68.648438 116.832031 66.679688 115.640625 C 65.640625 115.011719 64.625 114.359375 63.609375 113.707031 C 63.054688 113.351562 63.054688 113.351562 62.488281 112.988281 C 62.214844 112.8125 61.941406 112.636719 61.660156 112.457031 C 62.535156 110.199219 65.746094 108.804688 68.292969 107.484375 C 71.074219 106.019531 73.710938 104.46875 76.320312 102.855469 C 78.15625 101.722656 80.050781 100.644531 81.953125 99.566406 C 82.617188 99.183594 83.285156 98.800781 83.953125 98.417969 C 84.304688 98.214844 84.660156 98.011719 85.023438 97.800781 C 86.488281 96.957031 87.953125 96.109375 89.414062 95.261719 C 89.695312 95.097656 89.980469 94.9375 90.269531 94.769531 C 91.699219 93.941406 93.128906 93.109375 94.558594 92.28125 C 95.929688 91.488281 97.300781 90.695312 98.675781 89.902344 C 99.546875 89.394531 100.417969 88.890625 101.289062 88.382812 C 101.859375 88.054688 102.429688 87.722656 103 87.394531 C 103.265625 87.238281 103.53125 87.082031 103.804688 86.925781 C 105.667969 85.851562 105.667969 85.851562 106.535156 85.851562 Z M 106.535156 85.851562 "/>
<path style=" stroke:none;fill-rule:nonzero;fill:rgb(98.823529%,98.823529%,98.823529%);fill-opacity:1;" d="M 99.511719 15.085938 C 102.972656 16.089844 105.820312 18.96875 108.070312 20.980469 C 108.933594 21.714844 109.859375 22.375 110.828125 23.039062 C 109.488281 25.121094 106.675781 26.4375 104.203125 27.835938 C 102.921875 28.585938 101.703125 29.371094 100.488281 30.171875 C 98.589844 31.421875 96.628906 32.589844 94.601562 33.734375 C 93.542969 34.351562 92.605469 35.019531 91.652344 35.710938 C 90.777344 36.308594 89.851562 36.835938 88.902344 37.371094 C 87.132812 38.375 85.449219 39.421875 83.785156 40.511719 C 82.054688 41.636719 80.269531 42.714844 78.472656 43.789062 C 77.089844 44.617188 75.730469 45.457031 74.390625 46.320312 C 72.820312 47.324219 71.191406 48.234375 69.464844 49.097656 C 68.492188 48.476562 67.914062 47.859375 67.308594 47.039062 C 67.128906 46.796875 66.949219 46.554688 66.761719 46.304688 C 66.574219 46.050781 66.386719 45.792969 66.195312 45.53125 C 66.003906 45.273438 65.8125 45.011719 65.617188 44.746094 C 62.046875 39.878906 62.046875 39.878906 62.046875 38.949219 C 62.554688 38.589844 62.554688 38.589844 63.292969 38.160156 C 64.757812 37.285156 66.175781 36.386719 67.585938 35.46875 C 67.800781 35.328125 68.019531 35.1875 68.242188 35.042969 C 68.6875 34.753906 69.132812 34.460938 69.578125 34.171875 C 70.652344 33.472656 71.726562 32.773438 72.804688 32.074219 C 73.015625 31.9375 73.222656 31.800781 73.441406 31.660156 C 75.429688 30.371094 77.425781 29.085938 79.421875 27.800781 C 80.394531 27.175781 81.367188 26.546875 82.339844 25.921875 C 82.730469 25.667969 83.121094 25.417969 83.511719 25.164062 C 83.707031 25.042969 83.898438 24.917969 84.097656 24.789062 C 84.683594 24.410156 85.269531 24.035156 85.855469 23.65625 C 86.046875 23.53125 86.238281 23.410156 86.4375 23.28125 C 86.828125 23.027344 87.21875 22.777344 87.613281 22.523438 C 88.578125 21.902344 89.546875 21.277344 90.507812 20.648438 C 93.445312 18.738281 96.460938 16.902344 99.511719 15.085938 Z M 99.511719 15.085938 "/>
<path style=" stroke:none;fill-rule:nonzero;fill:rgb(98.431373%,98.431373%,98.431373%);fill-opacity:1;" d="M 105.972656 127.84375 C 109.511719 128.761719 111.773438 133.019531 113.5625 135.222656 C 112.179688 136.265625 110.839844 136.980469 109.070312 137.703125 C 108.828125 137.804688 108.582031 137.90625 108.332031 138.011719 C 107.804688 138.226562 107.277344 138.441406 106.75 138.65625 C 105.625 139.117188 104.503906 139.582031 103.378906 140.046875 C 102.800781 140.285156 102.226562 140.523438 101.648438 140.761719 C 98.9375 141.878906 96.246094 143.019531 93.5625 144.171875 C 93.113281 144.363281 92.667969 144.554688 92.222656 144.746094 C 91.105469 145.222656 89.988281 145.699219 88.875 146.175781 C 68.742188 154.804688 68.742188 154.804688 64 156.34375 C 64.214844 155.183594 64.597656 154.265625 65.328125 153.21875 C 65.519531 152.941406 65.714844 152.664062 65.910156 152.378906 C 66.117188 152.085938 66.324219 151.792969 66.535156 151.492188 C 66.964844 150.875 67.390625 150.261719 67.820312 149.644531 C 68.03125 149.34375 68.246094 149.039062 68.464844 148.722656 C 69.015625 147.921875 69.554688 147.117188 70.082031 146.308594 C 70.234375 146.074219 70.386719 145.84375 70.542969 145.605469 C 70.820312 145.179688 71.097656 144.753906 71.367188 144.328125 C 73.132812 141.648438 75.121094 140.179688 78.828125 138.789062 C 79.453125 138.539062 80.078125 138.285156 80.703125 138.035156 C 81.34375 137.777344 81.988281 137.519531 82.632812 137.261719 C 86.988281 135.519531 91.304688 133.734375 95.609375 131.929688 C 95.976562 131.777344 96.34375 131.625 96.722656 131.46875 C 97.796875 131.015625 98.875 130.566406 99.953125 130.113281 C 100.277344 129.976562 100.601562 129.839844 100.9375 129.703125 C 101.242188 129.574219 101.542969 129.445312 101.855469 129.316406 C 102.121094 129.203125 102.386719 129.09375 102.65625 128.980469 C 103.445312 128.640625 103.445312 128.640625 104.230469 128.183594 C 104.976562 127.816406 104.976562 127.816406 105.972656 127.84375 Z M 105.972656 127.84375 "/>
<path style=" stroke:none;fill-rule:nonzero;fill:rgb(98.431373%,98.431373%,98.431373%);fill-opacity:1;" d="M 118.632812 63.910156 C 120.378906 66.09375 120.558594 68.574219 120.195312 71.039062 C 119.449219 72.496094 118.480469 73.050781 116.609375 73.835938 C 116.117188 74.046875 115.621094 74.257812 115.128906 74.472656 C 114.871094 74.582031 114.613281 74.695312 114.351562 74.808594 C 113.019531 75.390625 111.730469 76.019531 110.4375 76.644531 C 110.179688 76.773438 109.917969 76.898438 109.648438 77.027344 C 106.636719 78.496094 103.664062 80 100.6875 81.503906 C 100.339844 81.675781 99.992188 81.851562 99.632812 82.027344 C 99.183594 82.253906 99.183594 82.253906 98.726562 82.484375 C 96.222656 83.617188 92.726562 83.023438 89.957031 82.652344 C 86.894531 82.132812 86.894531 82.132812 85.464844 81.460938 C 87.363281 80.042969 89.378906 78.875 91.632812 77.742188 C 94.167969 76.453125 96.664062 75.140625 99.121094 73.78125 C 101.84375 72.28125 104.609375 70.828125 107.402344 69.390625 C 109.246094 68.441406 111.070312 67.480469 112.878906 66.496094 C 117.640625 63.910156 117.640625 63.910156 118.632812 63.910156 Z M 118.632812 63.910156 "/>
</g>
</svg>
